<?xml version="1.0" standalone="no"?>
<!DOCTYPE svg PUBLIC "-//W3C//DTD SVG 20010904//EN"
 "http://www.w3.org/TR/2001/REC-SVG-20010904/DTD/svg10.dtd">
<svg version="1.0" xmlns="http://www.w3.org/2000/svg"
 width="700.000000pt" height="700.000000pt" viewBox="0 0 700.000000 700.000000"
 preserveAspectRatio="xMidYMid meet">
<metadata>
Created by potrace 1.14, written by Peter Selinger 2001-2017
</metadata>
<g transform="translate(0.000000,700.000000) scale(0.100000,-0.100000)"
fill="#000000" stroke="none">
<path d="M2880 5422 c-264 -20 -518 -187 -634 -417 -19 -38 -81 -207 -137
-375 -56 -168 -103 -306 -104 -307 -3 -4 -345 340 -345 346 0 3 19 24 41 46
57 56 83 116 82 190 -1 100 -49 178 -142 233 -39 23 -57 27 -121 26 -51 0 -86
-6 -110 -18 -19 -10 -156 -140 -304 -289 -297 -300 -316 -326 -316 -430 0 -74
33 -142 94 -192 103 -84 238 -78 356 15 21 16 41 30 46 30 4 0 83 -75 175
-167 l168 -166 -72 -32 c-107 -46 -153 -79 -242 -169 -110 -113 -190 -256
-231 -416 -24 -93 -25 -103 -29 -240 -7 -221 40 -400 150 -571 60 -94 141
-173 241 -236 49 -32 51 -35 64 -100 26 -136 113 -286 226 -394 381 -361 1008
-248 1237 223 l42 88 485 0 485 0 39 -81 c147 -305 480 -486 806 -437 83 13
91 15 145 33 247 83 459 321 516 577 12 56 14 59 78 100 187 122 309 316 366
583 4 17 8 91 10 165 4 157 -14 263 -67 394 -63 156 -213 344 -345 432 -111
74 -273 134 -396 147 -21 3 -42 8 -46 13 -5 5 -27 68 -50 139 -133 410 -245
745 -267 793 -61 134 -178 266 -306 346 -72 44 -180 91 -235 101 -15 3 -39 8
-53 11 -24 6 -1229 12 -1300 6z m356 -959 l-1 -438 -382 0 c-254 0 -383 3
-383 10 0 6 9 34 19 63 11 29 20 55 21 57 1 7 -2 -3 100 305 50 151 103 294
116 318 25 42 82 87 139 108 17 7 102 12 201 13 l171 2 -1 -438z m934 407 c96
-48 106 -68 240 -468 66 -198 120 -364 120 -368 0 -5 -168 -9 -382 -9 l-383 0
-1 438 -1 438 176 -2 c170 -2 178 -3 231 -29z m1001 -1412 c120 -59 223 -185
244 -299 19 -104 4 -212 -39 -283 l-23 -38 -39 42 c-99 107 -284 223 -390 245
-132 27 -256 30 -359 10 -227 -45 -443 -219 -548 -442 l-32 -68 -485 -1 -485
0 -31 61 c-49 96 -56 107 -107 172 -112 142 -278 245 -448 277 -264 50 -499
-24 -711 -225 -68 -64 -73 -66 -85 -49 -51 73 -69 189 -46 295 18 80 48 138
107 202 56 62 113 98 194 124 54 17 131 18 1632 16 l1575 -2 76 -37z m-2786
-857 c93 -41 148 -129 148 -236 0 -108 -40 -179 -132 -233 -40 -23 -57 -27
-126 -27 -68 0 -87 4 -125 27 -93 54 -133 124 -134 233 0 59 5 79 30 124 63
118 214 167 339 112z m2450 -1 c165 -76 204 -292 75 -421 -108 -108 -288 -102
-385 13 -106 125 -67 328 77 404 67 35 163 37 233 4z"/>
</g>
</svg>
